Coordinates
nRows=14
nColumns=24

# SIMM Motion File Header:
name Coordinates
datacolumns 24
datarows 14
otherdata 1
range 0.75000000000000000000 0.76300000000000001000

Units are S.I. units (second, meters, Newtons, ...)
Angles are in degrees.

endheader
time	pelvis_tx	pelvis_ty	pelvis_tz	pelvis_tilt	pelvis_list	pelvis_rotation	hip_flexion_r	hip_adduction_r	hip_rotation_r	knee_angle_r	ankle_angle_r	subtalar_angle_r	mtp_angle_r	hip_flexion_l	hip_adduction_l	hip_rotation_l	knee_angle_l	ankle_angle_l	subtalar_angle_l	mtp_angle_l	lumbar_extension	lumbar_bending	lumbar_rotation
      0.75000000000000000000	      0.60275140130863425000	      1.01217912506841780000	      0.00734434936927390750	      4.49621293743464090000	      1.38259072026481560000	      3.42268295664707840000	     20.34383002831697200000	     -3.36346736285066730000	     -6.60373423423177820000	    -22.74866865856263900000	     -0.42817613057269449000	     -0.00028170028265412489	      0.00000000000000000000	    -15.96049827715683000000	      0.91166650221651357000	      4.21720332568284380000	    -32.20891765896711700000	      4.50752036023864730000	      0.00063300381024901993	      0.00000000000000000000	    -15.59509953692153400000	      1.39439142275132590000	     -7.28909818024540710000
      0.75100000000000000000	      0.60287003299342312000	      1.01228974717293370000	      0.00753383417313060070	      4.50026887825832310000	      1.35744215182388080000	      3.42831055216176540000	     20.29635759317419300000	     -3.32890802893041470000	     -6.61341789521597790000	    -22.81924031551948000000	     -0.38150074602136169000	     -0.00008126821972476037	      0.00085618701328290018	    -15.80166879576472300000	      0.85921764673268042000	      4.14852135608101240000	    -32.58603401112854000000	      4.32346741772664430000	      0.00104236674619454030	     -0.00183725548976972250	    -15.58708364665067900000	      1.43733318434593740000	     -7.27724102611829600000
      0.75200000000000000000	      0.60298667823373087000	      1.01240125033572710000	      0.00772426407805527380	      4.50420884410936840000	      1.33190582879963420000	      3.43381439035620770000	     20.24801014846303500000	     -3.29372070247531880000	     -6.62318507185509730000	    -22.88766560216849700000	     -0.33437417994374102000	      0.00021557249848265042	      0.00214192596050953760	    -15.64127399910267100000	      0.80579694308465444000	      4.07861139758537570000	    -32.96411326536960500000	      4.13899609427057410000	      0.00165825157052512810	     -0.00460005401242994430	    -15.57903610773518300000	      1.48042496216265240000	     -7.26497410388512680000
      0.75300000000000000000	      0.60310131890679064000	      1.01251363351105490000	      0.00791564303375096550	      4.50803302797915610000	      1.30597741053023860000	      3.43919153469532060000	     20.19880866997284100000	     -3.25789149800008810000	     -6.63303423959875980000	    -22.95400202928481900000	     -0.28654630516481877000	      0.00050456332908628239	      0.00341649984250996490	    -15.47934011330396400000	      0.75139436446078123000	      4.00749079840615870000	    -33.34305559122034900000	      3.95357594823440020000	      0.00226829912536629210	     -0.00733592567863355920	    -15.57095770260990100000	      1.52366886067141530000	     -7.25229155489307510000
      0.75400000000000000000	      0.60321393882507224000	      1.01262689572547160000	      0.00810796096378264830	      4.51174355377956000000	      1.27965789678866670000	      3.44444288437160170000	     20.14876040472023900000	     -3.22141890432182890000	     -6.64296510155482340000	    -23.01826140945462400000	     -0.23803575753602912000	      0.00078426181216583975	      0.00467644701519137620	    -15.31589933202911200000	      0.69600594853360631000	      3.93518454586702360000	    -33.72278464860248400000	      3.76725787411388340000	      0.00286190274990788530	     -0.01000562730660442700	    -15.56285092905397400000	      1.56706235436189000000	     -7.23919231807514140000
      0.75500000000000000000	      0.60332452440342377000	      1.01274103477430240000	      0.00830120739945194520	      4.51534273361078230000	      1.25294885675897620000	      3.44956965583859350000	     20.09787198751019600000	     -3.18430239792563800000	     -6.65297703364887120000	    -23.08045476328652900000	     -0.18886307544977973000	      0.00105487013209806710	      0.00592098874700009750	    -15.15098448224930100000	      0.63962884488448846000	      3.86171892604115460000	    -34.10322559446358100000	      3.58011773548480950000	      0.00343780202539614680	     -0.01260606493530163100	    -15.55471840353194100000	      1.61060243124335510000	     -7.22567589869361980000
      0.75600000000000001000	      0.60343306468472513000	      1.01285604723829480000	      0.00849537180388862740	      4.51883303971760240000	      1.22585234836430400000	      3.45457329863215930000	     20.04614960289015000000	     -3.14654228568587020000	     -6.66306912469830870000	    -23.14059288726726000000	     -0.13904877375805719000	      0.00131717044726011680	      0.00714906744095446420	    -14.98462901303080500000	      0.58226124599091800000	      3.78712138811684530000	    -34.48430440822207300000	      3.39224886853064160000	      0.00400105776419577840	     -0.01516007193158120700	    -15.54656286456206400000	      1.65428565909022620000	     -7.21174227237251750000
      0.75700000000000001000	      0.60353955023368921000	      1.01297192901739860000	      0.00869044355395212280	      4.52221709157701750000	      1.19837076564752620000	      3.45945520989845570000	     19.99359939878696600000	     -3.10813939284665650000	     -6.67324023548932650000	    -23.19868704070841400000	     -0.08861388003438511200	      0.00157191561937109270	      0.00836035340789554990	    -14.81686701275307700000	      0.52390233285590271000	      3.71142010655909350000	    -34.86594667663869300000	      3.20374591230475270000	      0.00455596778814957620	     -0.01769066610611062100	    -15.53838717124443200000	      1.69810829756638350000	     -7.19739156199759660000
      0.75800000000000001000	      0.60364397226902433000	      1.01308867570165130000	      0.00888641191442951850	      4.52549768817747020000	      1.17050679118742520000	      3.46421652703900480000	     19.94022770995338300000	     -3.06909490242615850000	     -6.68348893677672520000	    -23.25474930109611900000	     -0.03757948090052148200	      0.00181931359840653110	      0.00955442166490043720	    -14.64773322346200300000	      0.46455229802053039000	      3.63464373365048440000	    -35.24807654897544800000	      3.01468822871275280000	      0.00510116800691536990	     -0.02019424189092722600	    -15.53019434359565800000	      1.74206630263547790000	     -7.18262381527000390000
      0.75900000000000001000	      0.60374632282700169000	      1.01320628250208800000	      0.00908326618738381460	      4.52867781948348290000	      1.14226342492034070000	      3.46885811321881030000	     19.88604100483513500000	     -3.02941038429849610000	     -6.69381346737477220000	    -23.30879253955352600000	      0.01403365377767051700	      0.00205900135956614030	      0.01073011689701607900	    -14.47726305812192700000	      0.40421238650300345000	      3.55682138409892760000	    -35.63061667067754700000	      2.82513812973540900000	      0.00562942208149937170	     -0.02263785174456551700	    -15.52198759627865100000	      1.78615529101573280000	     -7.16743900076132780000
      0.76000000000000001000	      0.60384659609813418000	      1.01332474343389230000	      0.00928099548649859860	      4.53176060946258820000	      1.11364417085181480000	      3.47338104884289670000	     19.83104527459006400000	     -2.98908825055829650000	     -6.70421179976538010000	    -23.36082939170183400000	      0.06620461963203325100	      0.00229116383077978930	      0.01188642474896513400	    -14.30549248446280000000	      0.34288494726073959000	      3.47798321676487230000	    -36.01349073542384400000	      2.63517673284606510000	      0.00613981794490202170	     -0.02501718880441615800	    -15.51377026413109000000	      1.83037044443516720000	     -7.15183754712792300000
      0.76100000000000001000	      0.60394478843299637000	      1.01344405136627950000	      0.00947958882686242810	      4.53474929365127190000	      1.08465300666904760000	      3.47778660082833820000	     19.77524608106914900000	     -2.94813170815872190000	     -6.71468167864049100000	    -23.41087234767119100000	      0.11891199852694320000	      0.00251656079251835490	      0.01302316743022738000	    -14.13245800436299100000	      0.28057342347938197000	      3.39816037957745020000	    -36.39662346082604900000	      2.44490270311332880000	      0.00663688279485221290	     -0.02735458095106719400	    -15.50554579880032900000	      1.87470654292076540000	     -7.13582030941927050000
      0.76200000000000001000	      0.60404089738910560000	      1.01356419840938680000	      0.00967903513750068520	      4.53764722496188530000	      1.05529427905680010000	      3.48207597422997230000	     19.71864888977086800000	     -2.90654452405456620000	     -6.72522062304402370000	    -23.45893429708434800000	      0.17213380689626923000	      0.00273613231934032590	      0.01414113892175783900	    -13.95819666744397800000	      0.21728234354356549000	      3.31738467655400940000	    -36.77993941644145100000	      2.25441583825700100000	      0.00712416056575724230	     -0.02967277522436689200	    -15.49731778640709800000	      1.91915802631322490000	     -7.11938829195425350000
      0.76300000000000001000	      0.60413492096640564000	      1.01368517611967570000	      0.00987932330221583110	      4.54045791987710160000	      1.02557269126150570000	      3.48625014729674820000	     19.66125921323215700000	     -2.86433092046329610000	     -6.73582583329065440000	    -23.50502876468330300000	      0.22584831988695872000	      0.00295017881715928810	      0.01524056518315624100	    -13.78274606083616800000	      0.15301733598614592000	      3.23568832439665320000	    -37.16336207560035400000	      2.06379968751135090000	      0.00760055836953968390	     -0.03196662290859719100	    -15.48909000591804400000	      1.96371895802957440000	     -7.10254246998764940000
